# xmcd
#
# Track frame offsets:
#	150
#	14304
#	34671
#	50493
#	64118
#	77544
#	94520
#	111725
#	127809
#	145922
#	164485
#	180891
#	196822
#	214359
#
# Disc length: 3001 seconds
#
# Revision: 0
# Processed by: cddbd v1.5.2PL0 Copyright (c) Steve Scherf et al.
# Submitted via: EZCDAudioConverter 4.0.5.1
#
DISCID=ba0bb70e
DTITLE=Siggi Schwarz feat. Andreas Kümmert, Jessy Martens - Heart and Soul
DYEAR=2016
DGENRE=Blues
TTITLE0=Andreas Kümmert - Crossroads Blues
TTITLE1=Jessy Martens - People Get Ready
TTITLE2=Andreas Kümmert - This Is A Man's World
TTITLE3=Jessy Martens - Midnight Rider
TTITLE4=Jessy Martens - Ain't No Sunshine
TTITLE5=Andreas Kümmert - When A Man Loves A Woman
TTITLE6=Jessy Martens - Rock And Roll Hoochie Koo
TTITLE7=Jessy Martens - The Word
TTITLE8=Andreas Kümmert - I'd Rather Go Blind
TTITLE9=Jessy Martens - Sittin' On The Dock Of The Bay
TTITLE10=Andreas Kümmert - I Thank You
TTITLE11=Jessy Martens - Brother Where Are You?
TTITLE12=Jessy Martens - The Thrill Is Gone
TTITLE13=Andreas Kümmert - Crossroads Blues (Radio Version)
EXTD=
EXTT0=
EXTT1=
EXTT2=
EXTT3=
EXTT4=
EXTT5=
EXTT6=
EXTT7=
EXTT8=
EXTT9=
EXTT10=
EXTT11=
EXTT12=
EXTT13=
PLAYORDER=
